# xmcd
#
# Track frame offsets: 
#        150
#        20781
#        29981
#        40663
#        63953
#        78957
#        97972
#        107277
#        115744
#        129527
#        140879
#        151480
#        161976
#        180795
#        200358
#
# Disc length: 2831 seconds
#
# Revision: 0
# Processed by: cddbd v1.5.2PL0 Copyright (c) Steve Scherf et al.
# Submitted via: ExactAudioCopy v1.0b4
#
DISCID=c50b0d0f
DTITLE=Greg Izor And The Box Kickers - The 13 14
DYEAR=2016
DGENRE=Blues
TTITLE0=Bump Your Head
TTITLE1=Hold On
TTITLE2=Don't Have To Worry
TTITLE3=Sugar Cane
TTITLE4=Country Home
TTITLE5=Lookin' At Them
TTITLE6=Paper In My Hand
TTITLE7=Tuneaux
TTITLE8=Stuck In The Bottle
TTITLE9=Wake Up With The Blues
TTITLE10=The 13 14
TTITLE11=Jailene
TTITLE12=Coming Down
TTITLE13=What It Is
TTITLE14=Top Shelf
EXTD=
EXTT0=
EXTT1=
EXTT2=
EXTT3=
EXTT4=
EXTT5=
EXTT6=
EXTT7=
EXTT8=
EXTT9=
EXTT10=
EXTT11=
EXTT12=
EXTT13=
EXTT14=
PLAYORDER=
